<mxfile host="65bd71144e">
    <diagram id="BchvI7WIYb1rJNrYavdt" name="使用案例圖">
        <mxGraphModel dx="760" dy="568" grid="1" gridSize="10" guides="1" tooltips="1" connect="1" arrows="1" fold="1" page="1" pageScale="1" pageWidth="827" pageHeight="1169" math="0" shadow="0">
            <root>
                <mxCell id="0"/>
                <mxCell id="1" parent="0"/>
                <mxCell id="S_wn4UYpw5f5jdBztWyt-140" value="&lt;span style=&quot;font-size: 15px;&quot;&gt;麥當勞點餐系統&lt;/span&gt;" style="swimlane;whiteSpace=wrap;html=1;labelBackgroundColor=none;fontStyle=0;fontSize=15;" parent="1" vertex="1">
                    <mxGeometry x="200" y="120" width="440" height="520" as="geometry"/>
                </mxCell>
                <mxCell id="S_wn4UYpw5f5jdBztWyt-142" value="顧客點餐" style="ellipse;whiteSpace=wrap;html=1;fontSize=15;" parent="S_wn4UYpw5f5jdBztWyt-140" vertex="1">
                    <mxGeometry x="73" y="40" width="120" height="60" as="geometry"/>
                </mxCell>
                <mxCell id="S_wn4UYpw5f5jdBztWyt-146" value="確認訂單狀況" style="ellipse;whiteSpace=wrap;html=1;fontSize=15;" parent="S_wn4UYpw5f5jdBztWyt-140" vertex="1">
                    <mxGeometry x="73" y="145" width="120" height="60" as="geometry"/>
                </mxCell>
                <mxCell id="S_wn4UYpw5f5jdBztWyt-143" value="顯示訂單詳細資訊" style="ellipse;whiteSpace=wrap;html=1;fontSize=15;" parent="S_wn4UYpw5f5jdBztWyt-140" vertex="1">
                    <mxGeometry x="66" y="240" width="137" height="60" as="geometry"/>
                </mxCell>
                <mxCell id="S_wn4UYpw5f5jdBztWyt-141" value="顯示處理中以及&lt;br style=&quot;font-size: 15px;&quot;&gt;完成訂單" style="ellipse;whiteSpace=wrap;html=1;fontSize=15;" parent="S_wn4UYpw5f5jdBztWyt-140" vertex="1">
                    <mxGeometry x="64" y="339" width="137" height="60" as="geometry"/>
                </mxCell>
                <mxCell id="S_wn4UYpw5f5jdBztWyt-144" value="移除已完成訂單" style="ellipse;whiteSpace=wrap;html=1;fontSize=15;" parent="S_wn4UYpw5f5jdBztWyt-140" vertex="1">
                    <mxGeometry x="73" y="439" width="120" height="60" as="geometry"/>
                </mxCell>
                <mxCell id="S_wn4UYpw5f5jdBztWyt-145" value="廚師調用食材" style="ellipse;whiteSpace=wrap;html=1;fontSize=15;" parent="S_wn4UYpw5f5jdBztWyt-140" vertex="1">
                    <mxGeometry x="258" y="80.5" width="120" height="60" as="geometry"/>
                </mxCell>
                <mxCell id="S_wn4UYpw5f5jdBztWyt-173" value="盤點庫存" style="ellipse;whiteSpace=wrap;html=1;fontSize=15;" parent="S_wn4UYpw5f5jdBztWyt-140" vertex="1">
                    <mxGeometry x="258" y="189.5" width="120" height="60" as="geometry"/>
                </mxCell>
                <mxCell id="S_wn4UYpw5f5jdBztWyt-175" value="提供點餐機" style="ellipse;whiteSpace=wrap;html=1;fontSize=15;" parent="S_wn4UYpw5f5jdBztWyt-140" vertex="1">
                    <mxGeometry x="258" y="379.5" width="120" height="60" as="geometry"/>
                </mxCell>
                <mxCell id="S_wn4UYpw5f5jdBztWyt-174" value="監控並補充庫存" style="ellipse;whiteSpace=wrap;html=1;fontSize=15;" parent="S_wn4UYpw5f5jdBztWyt-140" vertex="1">
                    <mxGeometry x="258" y="279.5" width="120" height="60" as="geometry"/>
                </mxCell>
                <mxCell id="S_wn4UYpw5f5jdBztWyt-150" value="顧客" style="shape=umlActor;verticalLabelPosition=bottom;verticalAlign=top;html=1;outlineConnect=0;fontSize=15;" parent="1" vertex="1">
                    <mxGeometry x="120" y="215" width="30" height="60" as="geometry"/>
                </mxCell>
                <mxCell id="S_wn4UYpw5f5jdBztWyt-149" value="員工" style="shape=umlActor;verticalLabelPosition=bottom;verticalAlign=top;html=1;outlineConnect=0;fontSize=15;" parent="1" vertex="1">
                    <mxGeometry x="120" y="420" width="30" height="60" as="geometry"/>
                </mxCell>
                <mxCell id="S_wn4UYpw5f5jdBztWyt-176" value="倉庫管理員" style="shape=umlActor;verticalLabelPosition=bottom;verticalAlign=top;html=1;outlineConnect=0;fontSize=15;" parent="1" vertex="1">
                    <mxGeometry x="710" y="155" width="30" height="60" as="geometry"/>
                </mxCell>
                <mxCell id="S_wn4UYpw5f5jdBztWyt-177" value="管理人員" style="shape=umlActor;verticalLabelPosition=bottom;verticalAlign=top;html=1;outlineConnect=0;fontSize=15;" parent="1" vertex="1">
                    <mxGeometry x="710" y="300" width="30" height="60" as="geometry"/>
                </mxCell>
                <mxCell id="S_wn4UYpw5f5jdBztWyt-178" value="餐廳管理系統" style="shape=umlActor;verticalLabelPosition=bottom;verticalAlign=top;html=1;outlineConnect=0;fontSize=15;" parent="1" vertex="1">
                    <mxGeometry x="710" y="559.5" width="30" height="60" as="geometry"/>
                </mxCell>
                <mxCell id="S_wn4UYpw5f5jdBztWyt-181" value="" style="endArrow=none;html=1;fontColor=#FFFFFF;entryX=0;entryY=0.5;entryDx=0;entryDy=0;fontSize=15;" parent="1" source="S_wn4UYpw5f5jdBztWyt-150" target="S_wn4UYpw5f5jdBztWyt-142" edge="1">
                    <mxGeometry width="50" height="50" relative="1" as="geometry">
                        <mxPoint x="220" y="250" as="sourcePoint"/>
                        <mxPoint x="440" y="350" as="targetPoint"/>
                    </mxGeometry>
                </mxCell>
                <mxCell id="S_wn4UYpw5f5jdBztWyt-182" value="" style="endArrow=none;html=1;fontColor=#FFFFFF;entryX=0;entryY=1;entryDx=0;entryDy=0;exitX=1;exitY=0.3333333333333333;exitDx=0;exitDy=0;exitPerimeter=0;fontSize=15;" parent="1" source="S_wn4UYpw5f5jdBztWyt-149" target="S_wn4UYpw5f5jdBztWyt-142" edge="1">
                    <mxGeometry width="50" height="50" relative="1" as="geometry">
                        <mxPoint x="160" y="247.82608695652175" as="sourcePoint"/>
                        <mxPoint x="260" y="200" as="targetPoint"/>
                    </mxGeometry>
                </mxCell>
                <mxCell id="S_wn4UYpw5f5jdBztWyt-183" value="" style="endArrow=none;html=1;fontColor=#FFFFFF;entryX=0;entryY=0.5;entryDx=0;entryDy=0;exitX=1;exitY=0.3333333333333333;exitDx=0;exitDy=0;exitPerimeter=0;fontSize=15;" parent="1" source="S_wn4UYpw5f5jdBztWyt-149" target="S_wn4UYpw5f5jdBztWyt-146" edge="1">
                    <mxGeometry width="50" height="50" relative="1" as="geometry">
                        <mxPoint x="170" y="257.82608695652175" as="sourcePoint"/>
                        <mxPoint x="270" y="210" as="targetPoint"/>
                    </mxGeometry>
                </mxCell>
                <mxCell id="S_wn4UYpw5f5jdBztWyt-184" value="" style="endArrow=none;html=1;fontColor=#FFFFFF;entryX=0;entryY=0.5;entryDx=0;entryDy=0;exitX=1;exitY=0.3333333333333333;exitDx=0;exitDy=0;exitPerimeter=0;fontSize=15;" parent="1" source="S_wn4UYpw5f5jdBztWyt-149" target="S_wn4UYpw5f5jdBztWyt-143" edge="1">
                    <mxGeometry width="50" height="50" relative="1" as="geometry">
                        <mxPoint x="180" y="267.82608695652175" as="sourcePoint"/>
                        <mxPoint x="280" y="220" as="targetPoint"/>
                    </mxGeometry>
                </mxCell>
                <mxCell id="S_wn4UYpw5f5jdBztWyt-185" value="" style="endArrow=none;html=1;fontColor=#FFFFFF;entryX=0;entryY=0.5;entryDx=0;entryDy=0;exitX=1;exitY=0.3333333333333333;exitDx=0;exitDy=0;exitPerimeter=0;fontSize=15;" parent="1" source="S_wn4UYpw5f5jdBztWyt-150" target="S_wn4UYpw5f5jdBztWyt-141" edge="1">
                    <mxGeometry width="50" height="50" relative="1" as="geometry">
                        <mxPoint x="190" y="277.82608695652175" as="sourcePoint"/>
                        <mxPoint x="290" y="230" as="targetPoint"/>
                    </mxGeometry>
                </mxCell>
                <mxCell id="S_wn4UYpw5f5jdBztWyt-186" value="" style="endArrow=none;html=1;fontColor=#FFFFFF;entryX=0;entryY=0.5;entryDx=0;entryDy=0;exitX=1;exitY=0.3333333333333333;exitDx=0;exitDy=0;exitPerimeter=0;fontSize=15;" parent="1" source="S_wn4UYpw5f5jdBztWyt-149" target="S_wn4UYpw5f5jdBztWyt-141" edge="1">
                    <mxGeometry width="50" height="50" relative="1" as="geometry">
                        <mxPoint x="200" y="287.82608695652175" as="sourcePoint"/>
                        <mxPoint x="300" y="240" as="targetPoint"/>
                    </mxGeometry>
                </mxCell>
                <mxCell id="S_wn4UYpw5f5jdBztWyt-187" value="" style="endArrow=none;html=1;fontColor=#FFFFFF;entryX=0;entryY=0.35;entryDx=0;entryDy=0;entryPerimeter=0;exitX=1;exitY=0.3333333333333333;exitDx=0;exitDy=0;exitPerimeter=0;fontSize=15;" parent="1" source="S_wn4UYpw5f5jdBztWyt-149" target="S_wn4UYpw5f5jdBztWyt-144" edge="1">
                    <mxGeometry width="50" height="50" relative="1" as="geometry">
                        <mxPoint x="210" y="297.82608695652175" as="sourcePoint"/>
                        <mxPoint x="310" y="250" as="targetPoint"/>
                    </mxGeometry>
                </mxCell>
                <mxCell id="S_wn4UYpw5f5jdBztWyt-188" value="" style="endArrow=none;html=1;fontColor=#FFFFFF;entryX=0;entryY=0.3333333333333333;entryDx=0;entryDy=0;entryPerimeter=0;exitX=0.987;exitY=0.658;exitDx=0;exitDy=0;exitPerimeter=0;fontSize=15;" parent="1" source="S_wn4UYpw5f5jdBztWyt-145" target="S_wn4UYpw5f5jdBztWyt-176" edge="1">
                    <mxGeometry width="50" height="50" relative="1" as="geometry">
                        <mxPoint x="220" y="307.82608695652175" as="sourcePoint"/>
                        <mxPoint x="320" y="260" as="targetPoint"/>
                    </mxGeometry>
                </mxCell>
                <mxCell id="S_wn4UYpw5f5jdBztWyt-189" value="" style="endArrow=none;html=1;fontColor=#FFFFFF;entryX=0;entryY=0.3333333333333333;entryDx=0;entryDy=0;entryPerimeter=0;fontSize=15;" parent="1" source="S_wn4UYpw5f5jdBztWyt-173" target="S_wn4UYpw5f5jdBztWyt-176" edge="1">
                    <mxGeometry width="50" height="50" relative="1" as="geometry">
                        <mxPoint x="230" y="317.82608695652175" as="sourcePoint"/>
                        <mxPoint x="330" y="270" as="targetPoint"/>
                    </mxGeometry>
                </mxCell>
                <mxCell id="S_wn4UYpw5f5jdBztWyt-190" value="" style="endArrow=none;html=1;fontColor=#FFFFFF;entryX=0;entryY=0.3333333333333333;entryDx=0;entryDy=0;entryPerimeter=0;exitX=1;exitY=0.368;exitDx=0;exitDy=0;exitPerimeter=0;fontSize=15;" parent="1" source="S_wn4UYpw5f5jdBztWyt-174" target="S_wn4UYpw5f5jdBztWyt-177" edge="1">
                    <mxGeometry width="50" height="50" relative="1" as="geometry">
                        <mxPoint x="240" y="327.82608695652175" as="sourcePoint"/>
                        <mxPoint x="340" y="280" as="targetPoint"/>
                    </mxGeometry>
                </mxCell>
                <mxCell id="S_wn4UYpw5f5jdBztWyt-191" value="" style="endArrow=none;html=1;fontColor=#FFFFFF;entryX=0;entryY=0.3333333333333333;entryDx=0;entryDy=0;entryPerimeter=0;exitX=1;exitY=0.5;exitDx=0;exitDy=0;fontSize=15;" parent="1" source="S_wn4UYpw5f5jdBztWyt-174" target="S_wn4UYpw5f5jdBztWyt-176" edge="1">
                    <mxGeometry width="50" height="50" relative="1" as="geometry">
                        <mxPoint x="250" y="337.82608695652175" as="sourcePoint"/>
                        <mxPoint x="350" y="290" as="targetPoint"/>
                    </mxGeometry>
                </mxCell>
                <mxCell id="S_wn4UYpw5f5jdBztWyt-192" value="" style="endArrow=none;html=1;fontColor=#FFFFFF;entryX=0;entryY=0.3333333333333333;entryDx=0;entryDy=0;entryPerimeter=0;exitX=1;exitY=0.5;exitDx=0;exitDy=0;fontSize=15;" parent="1" source="S_wn4UYpw5f5jdBztWyt-175" target="S_wn4UYpw5f5jdBztWyt-178" edge="1">
                    <mxGeometry width="50" height="50" relative="1" as="geometry">
                        <mxPoint x="260" y="347.82608695652175" as="sourcePoint"/>
                        <mxPoint x="360" y="300" as="targetPoint"/>
                    </mxGeometry>
                </mxCell>
                <mxCell id="2" value="廚師" style="shape=umlActor;verticalLabelPosition=bottom;verticalAlign=top;html=1;outlineConnect=0;fontSize=15;" parent="1" vertex="1">
                    <mxGeometry x="710" y="430" width="30" height="60" as="geometry"/>
                </mxCell>
                <mxCell id="5" value="" style="endArrow=none;html=1;fontColor=#FFFFFF;entryX=0;entryY=0.3333333333333333;entryDx=0;entryDy=0;entryPerimeter=0;exitX=1;exitY=0.5;exitDx=0;exitDy=0;fontSize=15;" parent="1" source="S_wn4UYpw5f5jdBztWyt-145" target="2" edge="1">
                    <mxGeometry width="50" height="50" relative="1" as="geometry">
                        <mxPoint x="586.44" y="249.98000000000002" as="sourcePoint"/>
                        <mxPoint x="720" y="185" as="targetPoint"/>
                    </mxGeometry>
                </mxCell>
            </root>
        </mxGraphModel>
    </diagram>
    <diagram name="類別圖" id="cuZ_j6QQlZmD7kymBJTa">
        <mxGraphModel dx="760" dy="368" grid="1" gridSize="10" guides="1" tooltips="1" connect="1" arrows="1" fold="1" page="1" pageScale="1" pageWidth="827" pageHeight="1169" math="0" shadow="0">
            <root>
                <mxCell id="pL1ei81Gsojn89LSqrTY-0"/>
                <mxCell id="pL1ei81Gsojn89LSqrTY-1" parent="pL1ei81Gsojn89LSqrTY-0"/>
                <mxCell id="3JpUqOG7Nplbq_jFQn-n-55" style="edgeStyle=none;html=1;entryX=0.507;entryY=1;entryDx=0;entryDy=0;entryPerimeter=0;" parent="pL1ei81Gsojn89LSqrTY-1" source="3JpUqOG7Nplbq_jFQn-n-6" target="GlYjtdQM9a6Nm-vBLSu6-4" edge="1">
                    <mxGeometry relative="1" as="geometry">
                        <mxPoint x="98" y="313" as="targetPoint"/>
                    </mxGeometry>
                </mxCell>
                <mxCell id="GlYjtdQM9a6Nm-vBLSu6-0" value="1" style="edgeLabel;html=1;align=center;verticalAlign=middle;resizable=0;points=[];" parent="3JpUqOG7Nplbq_jFQn-n-55" vertex="1" connectable="0">
                    <mxGeometry x="-0.5876" y="-2" relative="1" as="geometry">
                        <mxPoint x="5" y="9" as="offset"/>
                    </mxGeometry>
                </mxCell>
                <mxCell id="3JpUqOG7Nplbq_jFQn-n-6" value="員工" style="swimlane;fontStyle=0;childLayout=stackLayout;horizontal=1;startSize=26;fillColor=none;horizontalStack=0;resizeParent=1;resizeParentMax=0;resizeLast=0;collapsible=1;marginBottom=0;" parent="pL1ei81Gsojn89LSqrTY-1" vertex="1">
                    <mxGeometry x="27" y="435" width="140" height="104" as="geometry"/>
                </mxCell>
                <mxCell id="GlYjtdQM9a6Nm-vBLSu6-5" value="確認訂單狀態" style="text;strokeColor=none;fillColor=none;align=left;verticalAlign=top;spacingLeft=4;spacingRight=4;overflow=hidden;rotatable=0;points=[[0,0.5],[1,0.5]];portConstraint=eastwest;" parent="3JpUqOG7Nplbq_jFQn-n-6" vertex="1">
                    <mxGeometry y="26" width="140" height="26" as="geometry"/>
                </mxCell>
                <mxCell id="GlYjtdQM9a6Nm-vBLSu6-6" value="處理訂單" style="text;strokeColor=none;fillColor=none;align=left;verticalAlign=top;spacingLeft=4;spacingRight=4;overflow=hidden;rotatable=0;points=[[0,0.5],[1,0.5]];portConstraint=eastwest;" parent="3JpUqOG7Nplbq_jFQn-n-6" vertex="1">
                    <mxGeometry y="52" width="140" height="26" as="geometry"/>
                </mxCell>
                <mxCell id="3JpUqOG7Nplbq_jFQn-n-8" value="拿餐點給顧客" style="text;strokeColor=none;fillColor=none;align=left;verticalAlign=top;spacingLeft=4;spacingRight=4;overflow=hidden;rotatable=0;points=[[0,0.5],[1,0.5]];portConstraint=eastwest;" parent="3JpUqOG7Nplbq_jFQn-n-6" vertex="1">
                    <mxGeometry y="78" width="140" height="26" as="geometry"/>
                </mxCell>
                <mxCell id="3JpUqOG7Nplbq_jFQn-n-43" style="edgeStyle=none;html=1;entryX=-0.02;entryY=0.938;entryDx=0;entryDy=0;entryPerimeter=0;" parent="pL1ei81Gsojn89LSqrTY-1" edge="1">
                    <mxGeometry relative="1" as="geometry">
                        <mxPoint x="167" y="299.21201117318435" as="sourcePoint"/>
                        <mxPoint x="240.20000000000005" y="298.38800000000003" as="targetPoint"/>
                    </mxGeometry>
                </mxCell>
                <mxCell id="3JpUqOG7Nplbq_jFQn-n-10" value="顧客" style="swimlane;fontStyle=0;childLayout=stackLayout;horizontal=1;startSize=26;fillColor=none;horizontalStack=0;resizeParent=1;resizeParentMax=0;resizeLast=0;collapsible=1;marginBottom=0;" parent="pL1ei81Gsojn89LSqrTY-1" vertex="1">
                    <mxGeometry x="27" y="232" width="140" height="104" as="geometry"/>
                </mxCell>
                <mxCell id="3JpUqOG7Nplbq_jFQn-n-11" value="使用點餐機點餐" style="text;strokeColor=none;fillColor=none;align=left;verticalAlign=top;spacingLeft=4;spacingRight=4;overflow=hidden;rotatable=0;points=[[0,0.5],[1,0.5]];portConstraint=eastwest;" parent="3JpUqOG7Nplbq_jFQn-n-10" vertex="1">
                    <mxGeometry y="26" width="140" height="26" as="geometry"/>
                </mxCell>
                <mxCell id="3JpUqOG7Nplbq_jFQn-n-12" value="提出特殊要求" style="text;strokeColor=none;fillColor=none;align=left;verticalAlign=top;spacingLeft=4;spacingRight=4;overflow=hidden;rotatable=0;points=[[0,0.5],[1,0.5]];portConstraint=eastwest;" parent="3JpUqOG7Nplbq_jFQn-n-10" vertex="1">
                    <mxGeometry y="52" width="140" height="26" as="geometry"/>
                </mxCell>
                <mxCell id="GlYjtdQM9a6Nm-vBLSu6-4" value="領取餐點" style="text;strokeColor=none;fillColor=none;align=left;verticalAlign=top;spacingLeft=4;spacingRight=4;overflow=hidden;rotatable=0;points=[[0,0.5],[1,0.5]];portConstraint=eastwest;" parent="3JpUqOG7Nplbq_jFQn-n-10" vertex="1">
                    <mxGeometry y="78" width="140" height="26" as="geometry"/>
                </mxCell>
                <mxCell id="3JpUqOG7Nplbq_jFQn-n-49" style="edgeStyle=none;html=1;entryX=0.5;entryY=0;entryDx=0;entryDy=0;" parent="pL1ei81Gsojn89LSqrTY-1" source="3JpUqOG7Nplbq_jFQn-n-14" target="3JpUqOG7Nplbq_jFQn-n-24" edge="1">
                    <mxGeometry relative="1" as="geometry"/>
                </mxCell>
                <mxCell id="3JpUqOG7Nplbq_jFQn-n-51" style="edgeStyle=none;html=1;entryX=0;entryY=0.5;entryDx=0;entryDy=0;" parent="pL1ei81Gsojn89LSqrTY-1" source="3JpUqOG7Nplbq_jFQn-n-14" target="3JpUqOG7Nplbq_jFQn-n-35" edge="1">
                    <mxGeometry relative="1" as="geometry"/>
                </mxCell>
                <mxCell id="3JpUqOG7Nplbq_jFQn-n-14" value="訂單" style="swimlane;fontStyle=0;childLayout=stackLayout;horizontal=1;startSize=26;fillColor=none;horizontalStack=0;resizeParent=1;resizeParentMax=0;resizeLast=0;collapsible=1;marginBottom=0;" parent="pL1ei81Gsojn89LSqrTY-1" vertex="1">
                    <mxGeometry x="457" y="232" width="140" height="130" as="geometry"/>
                </mxCell>
                <mxCell id="3JpUqOG7Nplbq_jFQn-n-15" value="訂單編號" style="text;strokeColor=none;fillColor=none;align=left;verticalAlign=top;spacingLeft=4;spacingRight=4;overflow=hidden;rotatable=0;points=[[0,0.5],[1,0.5]];portConstraint=eastwest;" parent="3JpUqOG7Nplbq_jFQn-n-14" vertex="1">
                    <mxGeometry y="26" width="140" height="26" as="geometry"/>
                </mxCell>
                <mxCell id="3JpUqOG7Nplbq_jFQn-n-16" value="餐點項目" style="text;strokeColor=none;fillColor=none;align=left;verticalAlign=top;spacingLeft=4;spacingRight=4;overflow=hidden;rotatable=0;points=[[0,0.5],[1,0.5]];portConstraint=eastwest;" parent="3JpUqOG7Nplbq_jFQn-n-14" vertex="1">
                    <mxGeometry y="52" width="140" height="26" as="geometry"/>
                </mxCell>
                <mxCell id="3JpUqOG7Nplbq_jFQn-n-17" value="特殊要求" style="text;strokeColor=none;fillColor=none;align=left;verticalAlign=top;spacingLeft=4;spacingRight=4;overflow=hidden;rotatable=0;points=[[0,0.5],[1,0.5]];portConstraint=eastwest;" parent="3JpUqOG7Nplbq_jFQn-n-14" vertex="1">
                    <mxGeometry y="78" width="140" height="26" as="geometry"/>
                </mxCell>
                <mxCell id="3JpUqOG7Nplbq_jFQn-n-18" value="訂單狀態" style="text;strokeColor=none;fillColor=none;align=left;verticalAlign=top;spacingLeft=4;spacingRight=4;overflow=hidden;rotatable=0;points=[[0,0.5],[1,0.5]];portConstraint=eastwest;" parent="3JpUqOG7Nplbq_jFQn-n-14" vertex="1">
                    <mxGeometry y="104" width="140" height="26" as="geometry"/>
                </mxCell>
                <mxCell id="3JpUqOG7Nplbq_jFQn-n-47" style="edgeStyle=none;html=1;entryX=0;entryY=0.5;entryDx=0;entryDy=0;" parent="pL1ei81Gsojn89LSqrTY-1" source="3JpUqOG7Nplbq_jFQn-n-19" target="3JpUqOG7Nplbq_jFQn-n-16" edge="1">
                    <mxGeometry relative="1" as="geometry"/>
                </mxCell>
                <mxCell id="3JpUqOG7Nplbq_jFQn-n-19" value="點餐機" style="swimlane;fontStyle=0;childLayout=stackLayout;horizontal=1;startSize=26;fillColor=none;horizontalStack=0;resizeParent=1;resizeParentMax=0;resizeLast=0;collapsible=1;marginBottom=0;" parent="pL1ei81Gsojn89LSqrTY-1" vertex="1">
                    <mxGeometry x="243" y="232" width="140" height="130" as="geometry"/>
                </mxCell>
                <mxCell id="3JpUqOG7Nplbq_jFQn-n-20" value="選擇商品" style="text;strokeColor=none;fillColor=none;align=left;verticalAlign=top;spacingLeft=4;spacingRight=4;overflow=hidden;rotatable=0;points=[[0,0.5],[1,0.5]];portConstraint=eastwest;" parent="3JpUqOG7Nplbq_jFQn-n-19" vertex="1">
                    <mxGeometry y="26" width="140" height="26" as="geometry"/>
                </mxCell>
                <mxCell id="3JpUqOG7Nplbq_jFQn-n-21" value="調整細項" style="text;strokeColor=none;fillColor=none;align=left;verticalAlign=top;spacingLeft=4;spacingRight=4;overflow=hidden;rotatable=0;points=[[0,0.5],[1,0.5]];portConstraint=eastwest;" parent="3JpUqOG7Nplbq_jFQn-n-19" vertex="1">
                    <mxGeometry y="52" width="140" height="26" as="geometry"/>
                </mxCell>
                <mxCell id="3JpUqOG7Nplbq_jFQn-n-22" value="特殊要求" style="text;strokeColor=none;fillColor=none;align=left;verticalAlign=top;spacingLeft=4;spacingRight=4;overflow=hidden;rotatable=0;points=[[0,0.5],[1,0.5]];portConstraint=eastwest;" parent="3JpUqOG7Nplbq_jFQn-n-19" vertex="1">
                    <mxGeometry y="78" width="140" height="26" as="geometry"/>
                </mxCell>
                <mxCell id="3JpUqOG7Nplbq_jFQn-n-23" value="生成訂單" style="text;strokeColor=none;fillColor=none;align=left;verticalAlign=top;spacingLeft=4;spacingRight=4;overflow=hidden;rotatable=0;points=[[0,0.5],[1,0.5]];portConstraint=eastwest;" parent="3JpUqOG7Nplbq_jFQn-n-19" vertex="1">
                    <mxGeometry y="104" width="140" height="26" as="geometry"/>
                </mxCell>
                <mxCell id="3JpUqOG7Nplbq_jFQn-n-54" style="edgeStyle=none;html=1;entryX=0.421;entryY=1.108;entryDx=0;entryDy=0;entryPerimeter=0;" parent="pL1ei81Gsojn89LSqrTY-1" edge="1">
                    <mxGeometry relative="1" as="geometry">
                        <Array as="points">
                            <mxPoint x="86" y="580"/>
                        </Array>
                        <mxPoint x="457" y="579.1587301587301" as="sourcePoint"/>
                        <mxPoint x="85.94000000000005" y="541.808" as="targetPoint"/>
                    </mxGeometry>
                </mxCell>
                <mxCell id="3JpUqOG7Nplbq_jFQn-n-24" value="螢幕畫面" style="swimlane;fontStyle=0;childLayout=stackLayout;horizontal=1;startSize=26;fillColor=none;horizontalStack=0;resizeParent=1;resizeParentMax=0;resizeLast=0;collapsible=1;marginBottom=0;" parent="pL1ei81Gsojn89LSqrTY-1" vertex="1">
                    <mxGeometry x="457" y="514" width="140" height="78" as="geometry"/>
                </mxCell>
                <mxCell id="3JpUqOG7Nplbq_jFQn-n-25" value="顯示訂單" style="text;strokeColor=none;fillColor=none;align=left;verticalAlign=top;spacingLeft=4;spacingRight=4;overflow=hidden;rotatable=0;points=[[0,0.5],[1,0.5]];portConstraint=eastwest;" parent="3JpUqOG7Nplbq_jFQn-n-24" vertex="1">
                    <mxGeometry y="26" width="140" height="26" as="geometry"/>
                </mxCell>
                <mxCell id="3JpUqOG7Nplbq_jFQn-n-26" value="訂單狀態" style="text;strokeColor=none;fillColor=none;align=left;verticalAlign=top;spacingLeft=4;spacingRight=4;overflow=hidden;rotatable=0;points=[[0,0.5],[1,0.5]];portConstraint=eastwest;" parent="3JpUqOG7Nplbq_jFQn-n-24" vertex="1">
                    <mxGeometry y="52" width="140" height="26" as="geometry"/>
                </mxCell>
                <mxCell id="3JpUqOG7Nplbq_jFQn-n-29" value="庫存" style="swimlane;fontStyle=0;childLayout=stackLayout;horizontal=1;startSize=26;fillColor=none;horizontalStack=0;resizeParent=1;resizeParentMax=0;resizeLast=0;collapsible=1;marginBottom=0;" parent="pL1ei81Gsojn89LSqrTY-1" vertex="1">
                    <mxGeometry x="663" y="520" width="143" height="78" as="geometry"/>
                </mxCell>
                <mxCell id="3JpUqOG7Nplbq_jFQn-n-31" value="確保庫存供應" style="text;strokeColor=none;fillColor=none;align=left;verticalAlign=top;spacingLeft=4;spacingRight=4;overflow=hidden;rotatable=0;points=[[0,0.5],[1,0.5]];portConstraint=eastwest;" parent="3JpUqOG7Nplbq_jFQn-n-29" vertex="1">
                    <mxGeometry y="26" width="143" height="26" as="geometry"/>
                </mxCell>
                <mxCell id="3JpUqOG7Nplbq_jFQn-n-30" value="原物料庫存" style="text;strokeColor=none;fillColor=none;align=left;verticalAlign=top;spacingLeft=4;spacingRight=4;overflow=hidden;rotatable=0;points=[[0,0.5],[1,0.5]];portConstraint=eastwest;" parent="3JpUqOG7Nplbq_jFQn-n-29" vertex="1">
                    <mxGeometry y="52" width="143" height="26" as="geometry"/>
                </mxCell>
                <mxCell id="3JpUqOG7Nplbq_jFQn-n-50" style="edgeStyle=none;html=1;entryX=0.5;entryY=0;entryDx=0;entryDy=0;" parent="pL1ei81Gsojn89LSqrTY-1" source="3JpUqOG7Nplbq_jFQn-n-33" target="3JpUqOG7Nplbq_jFQn-n-37" edge="1">
                    <mxGeometry relative="1" as="geometry"/>
                </mxCell>
                <mxCell id="3JpUqOG7Nplbq_jFQn-n-33" value="廚師" style="swimlane;fontStyle=0;childLayout=stackLayout;horizontal=1;startSize=26;fillColor=none;horizontalStack=0;resizeParent=1;resizeParentMax=0;resizeLast=0;collapsible=1;marginBottom=0;" parent="pL1ei81Gsojn89LSqrTY-1" vertex="1">
                    <mxGeometry x="663" y="232" width="140" height="78" as="geometry"/>
                </mxCell>
                <mxCell id="3JpUqOG7Nplbq_jFQn-n-34" value="負責製作餐點" style="text;strokeColor=none;fillColor=none;align=left;verticalAlign=top;spacingLeft=4;spacingRight=4;overflow=hidden;rotatable=0;points=[[0,0.5],[1,0.5]];portConstraint=eastwest;" parent="3JpUqOG7Nplbq_jFQn-n-33" vertex="1">
                    <mxGeometry y="26" width="140" height="26" as="geometry"/>
                </mxCell>
                <mxCell id="3JpUqOG7Nplbq_jFQn-n-35" value="與倉庫管理人員合作" style="text;strokeColor=none;fillColor=none;align=left;verticalAlign=top;spacingLeft=4;spacingRight=4;overflow=hidden;rotatable=0;points=[[0,0.5],[1,0.5]];portConstraint=eastwest;" parent="3JpUqOG7Nplbq_jFQn-n-33" vertex="1">
                    <mxGeometry y="52" width="140" height="26" as="geometry"/>
                </mxCell>
                <mxCell id="3JpUqOG7Nplbq_jFQn-n-52" style="edgeStyle=none;html=1;entryX=0.5;entryY=0;entryDx=0;entryDy=0;" parent="pL1ei81Gsojn89LSqrTY-1" source="3JpUqOG7Nplbq_jFQn-n-37" target="3JpUqOG7Nplbq_jFQn-n-29" edge="1">
                    <mxGeometry relative="1" as="geometry"/>
                </mxCell>
                <mxCell id="3JpUqOG7Nplbq_jFQn-n-37" value="倉庫管理人員" style="swimlane;fontStyle=0;childLayout=stackLayout;horizontal=1;startSize=26;fillColor=none;horizontalStack=0;resizeParent=1;resizeParentMax=0;resizeLast=0;collapsible=1;marginBottom=0;" parent="pL1ei81Gsojn89LSqrTY-1" vertex="1">
                    <mxGeometry x="663" y="367" width="140" height="78" as="geometry"/>
                </mxCell>
                <mxCell id="3JpUqOG7Nplbq_jFQn-n-38" value="負責管理倉庫" style="text;strokeColor=none;fillColor=none;align=left;verticalAlign=top;spacingLeft=4;spacingRight=4;overflow=hidden;rotatable=0;points=[[0,0.5],[1,0.5]];portConstraint=eastwest;" parent="3JpUqOG7Nplbq_jFQn-n-37" vertex="1">
                    <mxGeometry y="26" width="140" height="26" as="geometry"/>
                </mxCell>
                <mxCell id="3JpUqOG7Nplbq_jFQn-n-39" value="監控庫存量" style="text;strokeColor=none;fillColor=none;align=left;verticalAlign=top;spacingLeft=4;spacingRight=4;overflow=hidden;rotatable=0;points=[[0,0.5],[1,0.5]];portConstraint=eastwest;" parent="3JpUqOG7Nplbq_jFQn-n-37" vertex="1">
                    <mxGeometry y="52" width="140" height="26" as="geometry"/>
                </mxCell>
                <mxCell id="3JpUqOG7Nplbq_jFQn-n-56" value="1" style="text;html=1;align=center;verticalAlign=middle;resizable=0;points=[];autosize=1;strokeColor=none;fillColor=none;" parent="pL1ei81Gsojn89LSqrTY-1" vertex="1">
                    <mxGeometry x="162" y="276" width="30" height="30" as="geometry"/>
                </mxCell>
                <mxCell id="3JpUqOG7Nplbq_jFQn-n-57" value="1" style="text;html=1;align=center;verticalAlign=middle;resizable=0;points=[];autosize=1;strokeColor=none;fillColor=none;" parent="pL1ei81Gsojn89LSqrTY-1" vertex="1">
                    <mxGeometry x="209" y="276" width="30" height="30" as="geometry"/>
                </mxCell>
                <mxCell id="3JpUqOG7Nplbq_jFQn-n-59" value="1" style="text;html=1;align=center;verticalAlign=middle;resizable=0;points=[];autosize=1;strokeColor=none;fillColor=none;" parent="pL1ei81Gsojn89LSqrTY-1" vertex="1">
                    <mxGeometry x="374" y="275" width="30" height="30" as="geometry"/>
                </mxCell>
                <mxCell id="3JpUqOG7Nplbq_jFQn-n-60" value="1...*" style="text;html=1;align=center;verticalAlign=middle;resizable=0;points=[];autosize=1;strokeColor=none;fillColor=none;" parent="pL1ei81Gsojn89LSqrTY-1" vertex="1">
                    <mxGeometry x="420" y="274" width="40" height="30" as="geometry"/>
                </mxCell>
                <mxCell id="3JpUqOG7Nplbq_jFQn-n-61" value="1...*" style="text;html=1;align=center;verticalAlign=middle;resizable=0;points=[];autosize=1;strokeColor=none;fillColor=none;" parent="pL1ei81Gsojn89LSqrTY-1" vertex="1">
                    <mxGeometry x="591" y="273" width="40" height="30" as="geometry"/>
                </mxCell>
                <mxCell id="3JpUqOG7Nplbq_jFQn-n-62" value="1" style="text;html=1;align=center;verticalAlign=middle;resizable=0;points=[];autosize=1;strokeColor=none;fillColor=none;" parent="pL1ei81Gsojn89LSqrTY-1" vertex="1">
                    <mxGeometry x="635" y="273" width="30" height="30" as="geometry"/>
                </mxCell>
                <mxCell id="3JpUqOG7Nplbq_jFQn-n-63" value="1" style="text;html=1;align=center;verticalAlign=middle;resizable=0;points=[];autosize=1;strokeColor=none;fillColor=none;" parent="pL1ei81Gsojn89LSqrTY-1" vertex="1">
                    <mxGeometry x="710" y="305" width="30" height="30" as="geometry"/>
                </mxCell>
                <mxCell id="3JpUqOG7Nplbq_jFQn-n-64" value="1" style="text;html=1;align=center;verticalAlign=middle;resizable=0;points=[];autosize=1;strokeColor=none;fillColor=none;" parent="pL1ei81Gsojn89LSqrTY-1" vertex="1">
                    <mxGeometry x="711" y="336" width="30" height="30" as="geometry"/>
                </mxCell>
                <mxCell id="3JpUqOG7Nplbq_jFQn-n-65" value="1" style="text;html=1;align=center;verticalAlign=middle;resizable=0;points=[];autosize=1;strokeColor=none;fillColor=none;" parent="pL1ei81Gsojn89LSqrTY-1" vertex="1">
                    <mxGeometry x="711" y="440" width="30" height="30" as="geometry"/>
                </mxCell>
                <mxCell id="3JpUqOG7Nplbq_jFQn-n-66" value="0...*" style="text;html=1;align=center;verticalAlign=middle;resizable=0;points=[];autosize=1;strokeColor=none;fillColor=none;rotation=-90;" parent="pL1ei81Gsojn89LSqrTY-1" vertex="1">
                    <mxGeometry x="702" y="486" width="40" height="30" as="geometry"/>
                </mxCell>
                <mxCell id="3JpUqOG7Nplbq_jFQn-n-67" value="1...*" style="text;html=1;align=center;verticalAlign=middle;resizable=0;points=[];autosize=1;strokeColor=none;fillColor=none;rotation=-90;" parent="pL1ei81Gsojn89LSqrTY-1" vertex="1">
                    <mxGeometry x="495" y="367" width="40" height="30" as="geometry"/>
                </mxCell>
                <mxCell id="3JpUqOG7Nplbq_jFQn-n-68" value="1...*" style="text;html=1;align=center;verticalAlign=middle;resizable=0;points=[];autosize=1;strokeColor=none;fillColor=none;rotation=-90;" parent="pL1ei81Gsojn89LSqrTY-1" vertex="1">
                    <mxGeometry x="495" y="470" width="40" height="30" as="geometry"/>
                </mxCell>
                <mxCell id="3JpUqOG7Nplbq_jFQn-n-69" value="1" style="text;html=1;align=center;verticalAlign=middle;resizable=0;points=[];autosize=1;strokeColor=none;fillColor=none;" parent="pL1ei81Gsojn89LSqrTY-1" vertex="1">
                    <mxGeometry x="83.5" y="537" width="30" height="30" as="geometry"/>
                </mxCell>
                <mxCell id="3JpUqOG7Nplbq_jFQn-n-72" value="1" style="text;html=1;align=center;verticalAlign=middle;resizable=0;points=[];autosize=1;strokeColor=none;fillColor=none;" parent="pL1ei81Gsojn89LSqrTY-1" vertex="1">
                    <mxGeometry x="429" y="553" width="30" height="30" as="geometry"/>
                </mxCell>
                <mxCell id="GlYjtdQM9a6Nm-vBLSu6-1" value="1..*" style="edgeLabel;html=1;align=center;verticalAlign=middle;resizable=0;points=[];rotation=90;" parent="pL1ei81Gsojn89LSqrTY-1" vertex="1" connectable="0">
                    <mxGeometry x="111.50278815098955" y="350.996362186193" as="geometry">
                        <mxPoint x="-2" y="2" as="offset"/>
                    </mxGeometry>
                </mxCell>
                <mxCell id="GlYjtdQM9a6Nm-vBLSu6-7" value="點餐" style="text;html=1;align=center;verticalAlign=middle;resizable=0;points=[];autosize=1;strokeColor=none;fillColor=none;" parent="pL1ei81Gsojn89LSqrTY-1" vertex="1">
                    <mxGeometry x="175" y="292" width="50" height="30" as="geometry"/>
                </mxCell>
                <mxCell id="GlYjtdQM9a6Nm-vBLSu6-8" value="製作" style="text;html=1;align=center;verticalAlign=middle;resizable=0;points=[];autosize=1;strokeColor=none;fillColor=none;" parent="pL1ei81Gsojn89LSqrTY-1" vertex="1">
                    <mxGeometry x="600" y="294" width="50" height="30" as="geometry"/>
                </mxCell>
                <mxCell id="GlYjtdQM9a6Nm-vBLSu6-9" value="匯出" style="text;html=1;align=center;verticalAlign=middle;resizable=0;points=[];autosize=1;strokeColor=none;fillColor=none;" parent="pL1ei81Gsojn89LSqrTY-1" vertex="1">
                    <mxGeometry x="392" y="291" width="50" height="30" as="geometry"/>
                </mxCell>
                <mxCell id="GlYjtdQM9a6Nm-vBLSu6-10" value="顯示" style="text;html=1;align=center;verticalAlign=middle;resizable=0;points=[];autosize=1;strokeColor=none;fillColor=none;" parent="pL1ei81Gsojn89LSqrTY-1" vertex="1">
                    <mxGeometry x="485" y="420" width="50" height="30" as="geometry"/>
                </mxCell>
                <mxCell id="GlYjtdQM9a6Nm-vBLSu6-11" value="供餐" style="text;html=1;align=center;verticalAlign=middle;resizable=0;points=[];autosize=1;strokeColor=none;fillColor=none;" parent="pL1ei81Gsojn89LSqrTY-1" vertex="1">
                    <mxGeometry x="95" y="375" width="50" height="30" as="geometry"/>
                </mxCell>
                <mxCell id="GlYjtdQM9a6Nm-vBLSu6-12" value="管理" style="text;html=1;align=center;verticalAlign=middle;resizable=0;points=[];autosize=1;strokeColor=none;fillColor=none;" parent="pL1ei81Gsojn89LSqrTY-1" vertex="1">
                    <mxGeometry x="683" y="325" width="50" height="30" as="geometry"/>
                </mxCell>
                <mxCell id="GlYjtdQM9a6Nm-vBLSu6-13" value="包含" style="text;html=1;align=center;verticalAlign=middle;resizable=0;points=[];autosize=1;strokeColor=none;fillColor=none;" parent="pL1ei81Gsojn89LSqrTY-1" vertex="1">
                    <mxGeometry x="681" y="466" width="50" height="30" as="geometry"/>
                </mxCell>
                <mxCell id="GlYjtdQM9a6Nm-vBLSu6-14" value="提供資訊" style="text;html=1;align=center;verticalAlign=middle;resizable=0;points=[];autosize=1;strokeColor=none;fillColor=none;" parent="pL1ei81Gsojn89LSqrTY-1" vertex="1">
                    <mxGeometry x="245" y="555" width="70" height="30" as="geometry"/>
                </mxCell>
            </root>
        </mxGraphModel>
    </diagram>
</mxfile>